<?xml version="1.0" encoding="utf-8"?>
<!-- Generator: Adobe Illustrator 20.1.0, SVG Export Plug-In . SVG Version: 6.00 Build 0)  -->
<svg version="1.1" id="Layer_1" xmlns="http://www.w3.org/2000/svg" xmlns:xlink="http://www.w3.org/1999/xlink" x="0px" y="0px"
	 viewBox="0 0 1200 1200" style="enable-background:new 0 0 1200 1200;" xml:space="preserve">
<style type="text/css">
	.st0{stroke:#FFFFFF;stroke-miterlimit:10;}
	.st1{fill:none;stroke:#FFFFFF;stroke-miterlimit:10;}
</style>
<rect class="st0" width="1199.5" height="1199.5"/>
<line class="st1" x1="74.5" y1="0" x2="74.5" y2="1200"/>
<line class="st1" x1="149.5" y1="0" x2="149.5" y2="1200"/>
<line class="st1" x1="224.5" y1="0" x2="224.5" y2="1200"/>
<line class="st1" x1="299.5" y1="0" x2="299.5" y2="1200"/>
<line class="st1" x1="374.5" y1="0" x2="374.5" y2="1200"/>
<line class="st1" x1="449.5" y1="0" x2="449.5" y2="1200"/>
<line class="st1" x1="524.5" y1="0" x2="524.5" y2="1200"/>
<line class="st1" x1="599.5" y1="0" x2="599.5" y2="1200"/>
<line class="st1" x1="674.5" y1="0" x2="674.5" y2="1200"/>
<line class="st1" x1="749.5" y1="0" x2="749.5" y2="1200"/>
<line class="st1" x1="824.5" y1="0" x2="824.5" y2="1200"/>
<line class="st1" x1="899.5" y1="0" x2="899.5" y2="1200"/>
<line class="st1" x1="974.5" y1="0" x2="974.5" y2="1200"/>
<line class="st1" x1="1049.5" y1="0" x2="1049.5" y2="1200"/>
<line class="st1" x1="1124.5" y1="0" x2="1124.5" y2="1200"/>
<line class="st1" x1="1200" y1="75.5" x2="0" y2="75.5"/>
<line class="st1" x1="1200" y1="150.5" x2="0" y2="150.5"/>
<line class="st1" x1="1200" y1="225.5" x2="0" y2="225.5"/>
<line class="st1" x1="1200" y1="300.5" x2="0" y2="300.5"/>
<line class="st1" x1="1200" y1="375.5" x2="0" y2="375.5"/>
<line class="st1" x1="1200" y1="450.5" x2="0" y2="450.5"/>
<line class="st1" x1="1200" y1="525.5" x2="0" y2="525.5"/>
<line class="st1" x1="1200" y1="600.5" x2="0" y2="600.5"/>
<line class="st1" x1="1200" y1="675.5" x2="0" y2="675.5"/>
<line class="st1" x1="1200" y1="750.5" x2="0" y2="750.5"/>
<line class="st1" x1="1200" y1="825.5" x2="0" y2="825.5"/>
<line class="st1" x1="1200" y1="900.5" x2="0" y2="900.5"/>
<line class="st1" x1="1200" y1="975.5" x2="0" y2="975.5"/>
<line class="st1" x1="1200" y1="1050.5" x2="0" y2="1050.5"/>
<line class="st1" x1="1200" y1="1125.5" x2="0" y2="1125.5"/>
</svg>
