<?xml version="1.0" encoding="utf-8"?>
<!-- Generator: Adobe Illustrator 20.1.0, SVG Export Plug-In . SVG Version: 6.00 Build 0)  -->
<svg width="40px" height="auto" version="1.1" id="Layer_1" xmlns="http://www.w3.org/2000/svg" xmlns:xlink="http://www.w3.org/1999/xlink" x="0px" y="0px"
	 viewBox="0 0 55.6 69.6" style="enable-background:new 0 0 55.6 69.6;" xml:space="preserve">
<style type="text/css">
	.st0{fill:#FFFFFF;}
</style>
<path class="st0" d="M49,16c-1,0-2.1,0.3-3,0.7l-0.4,0.1v-5C45.6,8,42.7,5,39,5c-1.1,0-2,0.3-3,0.8l-0.2,0.1l-0.1-0.3
	C35.1,2.3,32.5,0,29.3,0c-3.8,0-6.7,3.2-6.7,7.2v3.6l-0.4-0.1c-0.9-0.5-1.8-0.7-2.8-0.7c-3.8,0-6.7,3.1-6.7,6.8v20.5l-0.9-0.8
	c-1.3-1.3-3.1-2-4.9-2s-3.5,0.7-4.8,2c-1.3,1.3-2,3-2,4.8s0.7,3.5,2,4.8l3,3c0.1,0.2,0.3,0.3,0.4,0.5l14.4,14.7l0.1-0.1l0.1,0.1
	c3.9,3.4,8.8,5.3,14,5.3c12,0,21.6-9.8,21.6-21.8v-25C55.6,19,52.7,16,49,16z M15.6,40.9V16.8c0-1.8,1.7-3.2,3.5-3.2
	s3.5,1.4,3.5,3.2v15.8v1.3h3v-1.3V7.3c0-2.1,1.7-3.7,3.5-3.7s3.5,1.7,3.5,3.7v25.3v1.3h3v-1.3V11.8c0-1.8,1.7-3.2,3.5-3.2
	s3.5,1.4,3.5,3.2v20.8v2.3h3v-2.3v-9.8c0-1.8,1.7-3.2,3.5-3.2s3.5,1.4,3.5,3.2v25c0,10-8.3,18.2-18.3,18.2c-4.4,0-8.7-1.5-12-4.4
	l-2.1-2.2L3.8,42.5c-0.1-0.4-0.2-0.8-0.2-1.2c0-0.9,0.3-1.7,0.9-2.3c0.6-0.6,1.4-0.9,2.3-0.9c0.4,0,0.8,0.1,1.2,0.3l4.6,4.1v0.3h3"
	/>
</svg>
