<?xml version="1.0" encoding="utf-8"?>
<!-- Generator: Adobe Illustrator 20.1.0, SVG Export Plug-In . SVG Version: 6.00 Build 0)  -->
<svg width="40" height="auto" version="1.1" id="Layer_1" xmlns="http://www.w3.org/2000/svg" xmlns:xlink="http://www.w3.org/1999/xlink" x="0px" y="0px"
	 viewBox="0 0 52.6 69.6" style="enable-background:new 0 0 52.6 69.6;" xml:space="preserve">
<style type="text/css">
	.st0{fill:#FFFFFF;}
</style>
<g>
	<g>
		<path class="st0" d="M30.8,69.6c-5.8,0-11.2-2.2-15.3-6.3L2,49.6c-1.3-1.3-2-3-2-4.8s0.7-3.5,2-4.8s3-2,4.8-2H9V28l0.1-0.1
			c0.5-3.3,3.4-5.8,6.7-5.8c1.4,0,2.8,0.4,3.9,1.3l0.2,0.1l0.1-0.2c1.3-2,3.4-3.2,5.8-3.2s4.5,1.2,5.8,3.2l0.1,0.2l0.2-0.1
			c1.2-0.8,2.5-1.3,3.9-1.3c2.4,0,4.5,1.2,5.8,3.2l0.1,0.2l0.2-0.1c1.2-0.8,2.5-1.3,3.9-1.3c3.7,0,6.8,3,6.8,6.8v17
			C52.6,59.8,42.8,69.6,30.8,69.6z M6.8,41.6c-0.9,0-1.7,0.3-2.3,0.9c-0.6,0.6-0.9,1.4-0.9,2.3c0,0.9,0.3,1.7,0.9,2.3L18,60.8
			c3.4,3.4,8,5.3,12.8,5.3c10,0,18.2-8.2,18.2-18.2V30.8c0-1.8-1.4-3.2-3.2-3.2s-3.2,1.4-3.2,3.2v1.8H39v-3.8c0-1.8-1.4-3.2-3.2-3.2
			s-3.2,1.4-3.2,3.2v3.8H29v-5.8c0-1.8-1.4-3.2-3.2-3.2s-3.2,1.4-3.2,3.2v5.8H19v-3.8c0-1.8-1.4-3.2-3.2-3.2s-3.2,1.4-3.2,3.2v15.8
			H9v-3H6.8z"/>
	</g>
</g>
</svg>
